<svg width="32" height="32" viewBox="0 0 32 32" fill="none" xmlns="http://www.w3.org/2000/svg">
<circle cx="16" cy="16" r="16" fill="#F9F9FC"/>
<path d="M23.4935 9.58465C23.1692 9.24338 22.8926 9.07061 22.6399 8.96764C23.1122 8.64084 23.2986 8.14468 23.1224 7.6085L23.1113 7.57445C23.0645 7.42382 22.9403 7.02298 22.5003 7.02298C22.3267 7.02298 22.2126 7.10979 22.1292 7.17362C22.0679 7.22042 22.0416 7.2383 22.0135 7.23915C21.993 7.23489 21.9394 7.19574 21.9037 7.17021C21.805 7.09787 21.6705 7 21.4884 7C21.279 7 21.1513 7.08681 21.0662 7.14468C21.0118 7.18213 20.9897 7.19574 20.9616 7.19745C20.9054 7.20085 20.8867 7.18808 20.8211 7.14298C20.7241 7.07575 20.5599 6.9634 20.2807 7.05447C20.1667 7.09192 20.1037 7.21532 20.1411 7.32936C20.1786 7.4434 20.302 7.50638 20.416 7.46893C20.4909 7.44425 20.4986 7.45021 20.5735 7.50127C20.6569 7.55914 20.782 7.6468 20.9897 7.63233C21.1386 7.62212 21.2382 7.55489 21.3114 7.50552C21.3769 7.46127 21.4126 7.43659 21.4884 7.43659C21.5284 7.43659 21.5888 7.48084 21.6467 7.5234C21.7403 7.59148 21.856 7.67659 22.0092 7.67659C22.1914 7.67659 22.3139 7.58297 22.3939 7.52169C22.4501 7.47829 22.4756 7.46127 22.4994 7.46127C22.5931 7.46127 22.6356 7.51403 22.6943 7.70552L22.708 7.74723C22.8373 8.14212 22.6782 8.47317 22.2628 8.69104C21.919 8.10637 21.228 7.73106 20.5318 7.78808C19.5616 7.86638 19.1097 8.61531 18.7956 9.33701C18.7412 9.46126 18.685 9.6034 18.6237 9.75914C18.2646 10.6689 17.7216 12.0433 16.411 12.6043C15.7046 12.9056 13.7626 13.1669 12.263 12.4367C11.8774 12.2486 11.4698 11.8579 11.0749 11.4792C10.4843 10.9124 9.92254 10.3762 9.37021 10.4409C9.10809 10.4716 8.88085 10.6316 8.69447 10.9184C8.37958 11.4026 8.25363 12.5882 8.70978 13.4239C8.4383 13.6179 8.0017 14.046 8 14.795C7.9983 15.6664 8.57022 16.1396 9.04851 16.3447C8.80085 16.6682 8.49531 17.2554 8.78042 17.9643C9.02552 18.5737 9.51828 18.9337 10.091 18.9822C10.017 19.4418 10.1498 19.9218 10.4646 20.28C10.6774 20.5226 11.1234 20.8792 11.9055 20.8792C12.0706 20.8792 12.2502 20.863 12.4459 20.8273C12.7753 20.7668 12.9685 20.7643 13.0646 20.7703C13.1361 21.1583 13.2595 21.5413 13.474 21.7762C13.6187 21.9345 13.7812 22.0494 13.954 22.1217L13.8995 22.5481C13.897 22.5651 13.897 22.5821 13.8987 22.5992L14.1157 24.5643H13.2859C13.1659 24.5643 13.068 24.6613 13.068 24.7821C13.068 24.903 13.1659 25 13.2859 25H16.7089C16.8297 25 16.9267 24.903 16.9267 24.7821C16.9267 24.6613 16.8297 24.5643 16.7089 24.5643H14.554L14.3344 22.577L14.3812 22.2077C14.4246 22.2077 14.468 22.2051 14.5115 22.1992C14.8714 22.1532 15.1982 21.9285 15.3642 21.6145C15.6502 21.0724 15.9744 20.457 18.1915 19.9183C19.3609 19.6341 20.4095 18.7966 21.143 17.5601C21.6843 16.6494 21.8486 15.858 22.0392 14.9413L22.1005 14.6494C22.4273 13.1072 22.115 11.7336 21.9677 11.2188C22.1005 11.1617 22.2171 11.0758 22.3013 10.9617C22.5124 10.6758 22.5141 10.3328 22.4809 10.103C22.6264 10.0988 22.7685 10.0962 22.8954 10.0945C23.0468 10.0928 23.1779 10.0903 23.2715 10.086C23.4017 10.0792 23.5107 10.0052 23.5549 9.89281C23.5966 9.78728 23.5728 9.66984 23.492 9.58557L23.4935 9.58465ZM22.8901 9.6587C22.5871 9.66295 22.2092 9.66806 21.8688 9.7021C21.7488 9.71401 21.662 9.82125 21.6739 9.94041C21.685 10.0527 21.7794 10.1362 21.8901 10.1362C21.8969 10.1362 21.9046 10.1362 21.9122 10.1353C21.9548 10.131 21.9999 10.1285 22.0441 10.1251C22.0714 10.274 22.0875 10.5191 21.9522 10.7021C21.8569 10.8315 21.6586 10.891 21.4705 10.8485C21.3982 10.8315 21.2271 10.7736 21.1939 10.5957C21.1378 10.2927 21.2705 10.1336 21.2722 10.131C21.3539 10.0434 21.3497 9.90549 21.262 9.82294C21.1735 9.74124 21.0356 9.74549 20.9539 9.83315C20.9241 9.86464 20.6688 10.1566 20.765 10.6749C20.8203 10.9744 21.0475 11.1982 21.3718 11.2731C21.4263 11.2859 21.4807 11.2919 21.5352 11.2953C21.6612 11.7251 21.9888 13.0748 21.6739 14.559L21.6127 14.8526C21.4297 15.7309 21.2722 16.4892 20.7684 17.3377C20.2918 18.1402 19.4407 19.1657 18.0884 19.4951C15.6798 20.0806 15.2909 20.8185 14.9787 21.4117C14.88 21.5998 14.674 21.7393 14.4562 21.7674C14.2221 21.7963 13.9932 21.6985 13.7957 21.4815C13.5592 21.2227 13.4068 20.5019 13.4068 19.6449C13.4068 19.524 13.3089 19.427 13.1889 19.427C13.0689 19.427 12.9711 19.524 12.9711 19.6449C12.9711 19.81 12.9779 20.0585 13.0042 20.3317C12.8596 20.33 12.6553 20.3444 12.3676 20.3972C11.6911 20.5223 11.1319 20.3785 10.7923 19.9912C10.543 19.707 10.4511 19.3181 10.5413 18.9589C10.6502 18.9376 10.76 18.9061 10.8706 18.8627C10.983 18.8185 11.0374 18.6925 10.994 18.5802C10.9498 18.4687 10.8238 18.4134 10.7115 18.4568C10.0596 18.7121 9.4468 18.4474 9.18553 17.7997C8.87489 17.0278 9.55234 16.4287 9.58042 16.404C9.64425 16.3496 9.67064 16.2636 9.64936 16.1828C9.62808 16.1019 9.56255 16.0406 9.48 16.0245C9.43745 16.0159 8.43489 15.8074 8.43659 14.7938C8.43745 14.0143 9.07659 13.7036 9.10213 13.6909C9.1617 13.6636 9.2051 13.6117 9.22212 13.5487C9.23915 13.4858 9.22638 13.4185 9.18808 13.3658C8.67659 12.6526 8.84766 11.4789 9.06042 11.1531C9.17447 10.9777 9.29276 10.8858 9.42126 10.8705C9.7736 10.8288 10.2825 11.3182 10.7744 11.7897C11.1932 12.1914 11.6264 12.6067 12.0731 12.8237C13.7957 13.662 15.8909 13.2969 16.5829 13.0007C18.0612 12.3692 18.6441 10.8926 19.0296 9.91566C19.0891 9.76587 19.1436 9.628 19.1955 9.50715C19.5725 8.63991 19.97 8.26715 20.5674 8.21863C21.1853 8.16927 21.7946 8.55906 21.9904 9.12672C21.9929 9.13438 21.9989 9.13949 22.0014 9.1463C22.0083 9.15991 22.0151 9.17268 22.0244 9.18545C22.0329 9.19651 22.0414 9.20587 22.0508 9.21438C22.061 9.22374 22.0721 9.23225 22.0849 9.23991C22.0968 9.24757 22.1095 9.25268 22.1231 9.25779C22.1308 9.26034 22.1368 9.2663 22.1453 9.268C22.3444 9.31566 22.6032 9.37693 22.9376 9.65694C22.9223 9.65694 22.9061 9.65694 22.8899 9.65779L22.8901 9.6587Z" fill="#326CDB" stroke="#326CDB" stroke-width="0.5"/>
<path d="M18.7404 14.2127C18.6264 14.2501 18.5634 14.3727 18.6008 14.4876C18.703 14.8007 18.834 16.1318 17.6179 16.9266C16.2519 17.8202 14.3498 18.0015 12.7729 17.3879C11.1065 16.7402 10.5456 16.0424 10.5719 15.6415C10.5923 15.3309 10.966 15.0645 11.5966 14.9096C11.7132 14.8807 11.7847 14.7632 11.7566 14.6458C11.7277 14.5284 11.6085 14.4577 11.4928 14.4858C10.3592 14.7632 10.1566 15.3113 10.137 15.6126C10.0877 16.3675 10.9906 17.1624 12.6153 17.7931C13.2859 18.0535 14.0102 18.1811 14.7328 18.1811C15.8476 18.1811 16.9592 17.8773 17.857 17.2901C19.1745 16.4288 19.2068 14.9377 19.0162 14.3514C18.9787 14.2374 18.8562 14.1744 18.7421 14.2119L18.7404 14.2127Z" fill="#326CDB" stroke="#326CDB" stroke-width="0.5"/>
</svg>
